<?xml version="1.0" encoding="UTF-8"?>
<svg width="114px" height="95px" viewBox="0 0 114 95" version="1.1" xmlns="http://www.w3.org/2000/svg" xmlns:xlink="http://www.w3.org/1999/xlink">
    <!-- Generator: Sketch 56.3 (81716) - https://sketch.com -->
    <title>Deposit icon</title>
    <desc>Created with Sketch.</desc>
    <g id="Page-1" stroke="none" stroke-width="1" fill="none" fill-rule="evenodd" stroke-linecap="round" stroke-linejoin="round">
        <g id="Landing" transform="translate(-444.000000, -717.000000)" stroke="#FF4A4A" stroke-width="4.5">
            <g id="Deposit-collateral" transform="translate(378.000000, 720.000000)">
                <g id="Deposit-icon" transform="translate(69.000000, 0.000000)">
                    <path d="M32,30.9048792 L45.9864155,17.6163693 C47.5532403,16.5630054 49.3954008,16.0005133 51.2800205,16 L69.2208125,16 C72.5570866,15.998851 75.6502877,17.7551118 77.3730616,20.6286927 L79.0775343,23.459787 C80.7774319,26.2792147 80.9172264,29.7794885 79.4476483,32.7269675 L77.9038831,35.8323547 C75.9837363,39.6971944 71.7282357,41.7900951 67.5163399,40.9410594 L52.1176471,37.8454684 C51.2922263,37.6831813 50.4365547,37.8595379 49.7411252,38.3352771 C46.8158126,40.2801955 45.2046039,43.6966967 45.5578624,47.2057126 C45.6939712,48.5920603 46.5941185,49.7834143 47.885685,50.2866093 L73.9348968,60.3619742 C75.9402209,61.1373309 78.1472593,61.2081022 80.1976163,60.5627957 L108,51.8295067" id="Shape"></path>
                    <path d="M108,14.2793088 L86.7161832,1.38123252 C85.0397731,0.374616628 83.0895704,-0.101250857 81.1293033,0.0179821831 L46.8663594,2.00045538 C44.7269835,2.11939237 42.6904469,2.94276467 41.0843047,4.3381417 L24.0065058,19.2906938 C22.7563486,20.3814915 21.8205951,21.7772416 21.2935755,23.3372432 L18,33" id="Shape"></path>
                    <path d="M36.2372784,46 L26.4586296,46 C23.3666178,45.99012 20.7043592,48.1949536 20.117609,51.2515502 C19.5308588,54.3081467 21.1853764,57.353004 24.0583722,58.5038523 L33.9618343,62.496181 C36.8237734,63.6555795 38.4677131,66.6949687 37.8823123,69.7445357 C37.2969115,72.7941028 34.6464928,74.9978306 31.5615769,75 L21.8357339,75" id="Shape"></path>
                    <path d="M29,45.75 L29,42" id="Shape"></path>
                    <path d="M29,78.75 L29,75" id="Shape"></path>
                    <path d="M35.7953991,31.6703746 C23.0292852,28.9286178 9.9496,34.7700576 3.65221456,46.0256495 C-2.64517088,57.2812415 -0.659337103,71.2683268 8.53237952,80.39876 C17.7240962,89.5291932 31.930941,91.6268259 43.4455467,85.5536697 C54.9601524,79.4805135 61.0381268,66.684045 58.3821028,54.1064871" id="Shape"></path>
                </g>
            </g>
        </g>
    </g>
</svg>