<?xml version="1.0" encoding="iso-8859-1"?>
<!-- Generator: Adobe Illustrator 19.0.0, SVG Export Plug-In . SVG Version: 6.00 Build 0)  -->
<svg version="1.1" id="Layer_1" xmlns="http://www.w3.org/2000/svg" xmlns:xlink="http://www.w3.org/1999/xlink" x="0px" y="0px"
	 viewBox="0 0 512 512" style="enable-background:new 0 0 512 512;" xml:space="preserve">
<path style="fill:#FF615C;" d="M487.891,101.153c21.271-21.271,21.271-55.758,0-77.03c-21.271-21.271-55.759-21.271-77.03,0
	l-23.109,23.109l23.109,53.921l53.92,23.109L487.891,101.153z"/>
<polygon style="fill:#FFD47D;" points="426.268,116.56 356.941,78.044 46.699,388.286 85.214,457.613 "/>
<polygon style="fill:#FFA72E;" points="410.862,101.153 69.808,442.207 123.729,465.315 433.97,155.074 "/>
<polygon style="fill:#FFFFFF;" points="46.699,388.286 23.59,457.613 23.59,488.424 54.402,488.424 123.729,465.315 "/>
<rect x="389.079" y="46.682" transform="matrix(0.7071 -0.7071 0.7071 0.7071 48.8163 320.1518)" style="fill:#BEC3CC;" width="43.574" height="108.935"/>
<polygon style="fill:#4AAEE2;" points="8.185,503.83 54.402,488.424 23.59,457.613 "/>
<path style="fill:#080342;" d="M493.669,18.346C481.837,6.515,466.107,0,449.376,0c-16.73,0-32.461,6.515-44.292,18.346
	L40.922,382.509c-0.216,0.216-0.415,0.442-0.601,0.675c-0.046,0.058-0.086,0.119-0.131,0.178c-0.139,0.183-0.272,0.369-0.393,0.561
	c-0.045,0.07-0.084,0.143-0.126,0.214c-0.112,0.19-0.217,0.382-0.313,0.578c-0.037,0.076-0.073,0.154-0.107,0.231
	c-0.09,0.202-0.171,0.405-0.244,0.612c-0.017,0.049-0.041,0.095-0.057,0.144L0.434,501.246c-0.978,2.936-0.215,6.172,1.974,8.361
	C3.965,511.164,6.053,512,8.186,512c0.864,0,1.736-0.137,2.583-0.419l115.544-38.514c0.053-0.017,0.102-0.044,0.156-0.062
	c0.199-0.071,0.395-0.149,0.59-0.235c0.084-0.037,0.167-0.075,0.249-0.115c0.19-0.093,0.376-0.194,0.56-0.303
	c0.076-0.045,0.154-0.088,0.229-0.135c0.187-0.119,0.368-0.248,0.547-0.383c0.063-0.048,0.129-0.09,0.19-0.139
	c0.232-0.186,0.459-0.385,0.674-0.6l364.161-364.162C518.091,82.507,518.091,42.768,493.669,18.346z M433.97,143.519l-32.734-32.734
	c-0.005-0.005-32.741-32.741-32.741-32.741l19.257-19.257l65.475,65.475L433.97,143.519z M123.729,453.761l-26.961-26.96
	l137.789-137.789c3.191-3.191,3.191-8.364,0-11.554c-3.192-3.191-8.364-3.191-11.555,0L85.215,415.245l-26.96-26.96L356.941,89.599
	l26.961,26.961l-137.79,137.788c-3.191,3.191-3.191,8.364,0,11.554c1.596,1.596,3.686,2.393,5.778,2.393
	c2.09,0,4.182-0.797,5.778-2.393l137.789-137.788l26.96,26.96L123.729,453.761z M56.609,479.076l-23.671-23.671l17.332-51.994
	l58.334,58.333L56.609,479.076z M27.16,472.737l12.117,12.116l-18.175,6.058L27.16,472.737z M482.114,95.376l-17.331,17.331
	l-65.475-65.475L416.64,29.9c8.742-8.743,20.369-13.559,32.736-13.559s23.993,4.816,32.738,13.56
	c8.744,8.744,13.56,20.371,13.56,32.737S490.858,86.631,482.114,95.376z"/>
<g>
</g>
<g>
</g>
<g>
</g>
<g>
</g>
<g>
</g>
<g>
</g>
<g>
</g>
<g>
</g>
<g>
</g>
<g>
</g>
<g>
</g>
<g>
</g>
<g>
</g>
<g>
</g>
<g>
</g>
</svg>
