<?xml version="1.0" encoding="UTF-8"?>
<svg width="114px" height="123px" viewBox="0 0 114 123" version="1.1" xmlns="http://www.w3.org/2000/svg" xmlns:xlink="http://www.w3.org/1999/xlink">
    <!-- Generator: Sketch 56.3 (81716) - https://sketch.com -->
    <title>sell tokens icon</title>
    <desc>Created with Sketch.</desc>
    <g id="Page-1" stroke="none" stroke-width="1" fill="none" fill-rule="evenodd" stroke-linecap="round" stroke-linejoin="round">
        <g id="Landing" transform="translate(-147.000000, -1005.000000)" stroke="#FF4A4A" stroke-width="3.75">
            <g id="Sell-tokens-to-leverage" transform="translate(100.000000, 1007.000000)">
                <g id="sell-tokens-icon" transform="translate(49.000000, 0.000000)">
                    <g id="business-deal-cash-3">
                        <path d="M74.1666667,6.51325071 C63.0605514,-2.2287331 46.8597568,-2.163895 35.8333333,6.66666667" id="Shape"></path>
                        <path d="M46.6666667,74.2016667 C52.113277,75.7802809 57.8933112,75.7681429 63.3333333,74.1666667" id="Shape"></path>
                        <circle id="Oval" cx="18.75" cy="37.9166667" r="14.5833333"></circle>
                        <path d="M36.6666667,89.1666667 L36.6666667,78.2291667 C36.6666667,68.1614759 28.4585537,60 18.3333333,60 C8.20811292,60 0,68.1614759 0,78.2291667 L0,89.1666667 L7.33333333,89.1666667 L11,118.333333 L25.6666667,118.333333 L29.3333333,89.1666667 L36.6666667,89.1666667 Z" id="Shape"></path>
                        <circle id="Oval" cx="92.0833333" cy="37.9166667" r="14.5833333"></circle>
                        <path d="M110,89.1666667 L110,78.2291667 C110,68.1614759 101.791887,60 91.6666667,60 C81.5414463,60 73.3333333,68.1614759 73.3333333,78.2291667 L73.3333333,89.1666667 L80.6666667,89.1666667 L84.3333333,118.333333 L99,118.333333 L102.666667,89.1666667 L110,89.1666667 Z" id="Shape"></path>
                        <path d="M46.6666667,52.5 L46.6666667,23.3333333 L57.6666667,23.3333333 C61.7167548,23.3333333 65,26.5979237 65,30.625 C65,34.6520763 61.7167548,37.9166667 57.6666667,37.9166667 C61.7167548,37.9166667 65,41.181257 65,45.2083333 C65,49.2354096 61.7167548,52.5 57.6666667,52.5 L46.6666667,52.5 Z" id="Shape"></path>
                        <path d="M54.1666667,23.3333333 L54.1666667,15.8333333" id="Shape"></path>
                        <path d="M58.648223,38.2291667 L47.8789922,38.2291667" id="Shape-Copy"></path>
                        <path d="M54.1666667,52.5 L54.1666667,60" id="Shape"></path>
                    </g>
                </g>
            </g>
        </g>
    </g>
</svg>