<?xml version="1.0" encoding="UTF-8"?>
<svg width="101px" height="116px" viewBox="0 0 101 116" version="1.1" xmlns="http://www.w3.org/2000/svg" xmlns:xlink="http://www.w3.org/1999/xlink">
    <!-- Generator: Sketch 56.3 (81716) - https://sketch.com -->
    <title>Open Icon</title>
    <desc>Created with Sketch.</desc>
    <g id="Page-1" stroke="none" stroke-width="1" fill="none" fill-rule="evenodd" stroke-linecap="round" stroke-linejoin="round">
        <g id="Landing" transform="translate(-150.000000, -707.000000)" stroke="#FF4A4A" stroke-width="4.5">
            <g id="Open-up-a-facility" transform="translate(105.000000, 710.000000)">
                <g id="Open-Icon" transform="translate(48.000000, 0.000000)">
                    <g id="login-2">
                        <path d="M33.6183139,53.1319521 C32.8735265,53.1379254 32.2057815,53.5901665 31.9267525,54.2775895 C31.6477236,54.9650125 31.8124273,55.7520766 32.3439875,56.2714155 C32.8755477,56.7907543 33.6691553,56.9399687 34.3543898,56.6494119 C35.0396242,56.3588552 35.4813763,55.6858171 35.4734558,54.9444417 C35.4747637,54.4581589 35.2812831,53.9914177 34.9358537,53.6475625 C34.5904244,53.3037074 34.1215464,53.1111085 33.6330372,53.1124039 L33.6330372,53.1124039" id="Shape"></path>
                        <path d="M66.2550699,10.9756917 L88.3400928,10.9756917 C92.4058333,10.9756917 95.7017671,14.256605 95.7017671,18.3038167 L95.7017671,91.5850667 C95.7017671,95.6322784 92.4058333,98.9131917 88.3400928,98.9131917 L66.2550699,98.9131917" id="Shape"></path>
                        <path d="M47.3306592,109.885838 L3.16061342,103.603192 C1.34689485,103.347567 -0.000968002121,101.801672 4.26325641e-13,99.9782126 L4.26325641e-13,14.5176188 C-0.00142704791,12.7884699 1.21173643,11.293691 2.9103165,10.931723 L47.0803623,0.0812125532 C48.1677114,-0.150502725 49.3020115,0.119521083 50.1664079,0.815855671 C51.0308042,1.51219026 51.5326358,2.56019043 51.5317226,3.66710839 L51.5317226,106.260858 C51.5310508,107.322579 51.0677672,108.331808 50.261825,109.027233 C49.4558827,109.722658 48.3865349,110.035894 47.3306592,109.885838 Z" id="Shape"></path>
                    </g>
                </g>
            </g>
        </g>
    </g>
</svg>