<?xml version="1.0" encoding="UTF-8"?>
<svg width="137px" height="35px" viewBox="0 0 137 35" version="1.1" xmlns="http://www.w3.org/2000/svg" xmlns:xlink="http://www.w3.org/1999/xlink">
    <!-- Generator: Sketch 56.3 (81716) - https://sketch.com -->
    <title>Logo</title>
    <desc>Created with Sketch.</desc>
    <g id="Page-1" stroke="none" stroke-width="1" fill="none" fill-rule="evenodd">
        <g id="Landing" transform="translate(-100.000000, -50.000000)" fill="#FF4A4A">
            <g id="Logo" transform="translate(100.000000, 50.000000)">
                <g id="Group">
                    <path d="M87.8749918,34.3156185 L82.0805587,34.3156185 C80.9920908,34.3156185 80.1098866,33.4354656 80.1098866,32.3509914 L80.1098866,17.0812543 L69.9385907,23.4407524 C69.0852896,23.9744761 68.0001062,23.9744761 67.1468051,23.4407524 L56.9755092,17.0805994 L56.9755092,32.3509914 C56.9755092,33.4354656 56.0926481,34.3156185 55.0048371,34.3156185 L49.210404,34.3156185 C48.1212792,34.3156185 47.2397319,33.4354656 47.2397319,32.3509914 L47.2397319,2.9202218 C47.2397319,0.81283174 49.6084798,-0.432086998 51.3518678,0.759131931 L67.4292681,11.7407428 C68.0999536,12.1998107 68.9854422,12.1998107 69.6567846,11.7407428 L85.7328711,0.759131931 C87.476916,-0.432741874 89.8456639,0.812176864 89.8456639,2.91956692 L89.8456639,32.3509914 C89.8456639,33.4354656 88.9634597,34.3156185 87.8749918,34.3156185" id="Fill-1"></path>
                    <path d="M38.5111893,34.0535373 L2.61500572,34.0528851 C1.17086881,34.0528851 2.13162821e-14,32.8848321 2.13162821e-14,31.4441683 L2.13162821e-14,1.95653762 C2.13162821e-14,0.875876675 0.877988172,7.10542736e-15 1.96125429,7.10542736e-15 L7.72799567,7.10542736e-15 C8.81060804,7.10542736e-15 9.68924996,0.875876675 9.68924996,1.95653762 L9.68924996,24.3869371 L31.4369451,24.3875893 L31.4369451,1.95653762 C31.4369451,0.875876675 32.3142795,7.10542736e-15 33.3981994,7.10542736e-15 L39.1649407,7.10542736e-15 C40.2475531,7.10542736e-15 41.126195,0.875876675 41.126195,1.95653762 L41.126195,31.4448205 C41.126195,32.8854843 39.9553262,34.0535373 38.5111893,34.0535373" id="Fill-4"></path>
                    <path d="M98.4888107,7.10542736e-15 L134.384994,0.000652179207 C135.829131,0.000652179207 137,1.16870514 137,2.60936901 L137,32.0969997 C137,33.1776606 136.121358,34.0535373 135.038746,34.0535373 L129.272004,34.0535373 C128.188738,34.0535373 127.31075,33.1776606 127.31075,32.0969997 L127.31075,10.9709586 C127.31075,10.2509528 126.724989,9.6666002 126.003247,9.6666002 L106.870558,9.66594802 C106.148816,9.66594802 105.563055,10.2496484 105.563055,10.9703064 L105.563055,32.0969997 C105.563055,33.1776606 104.685067,34.0535373 103.601801,34.0535373 L97.8350593,34.0535373 C96.7517931,34.0535373 95.873805,33.1776606 95.873805,32.0969997 L95.873805,2.60871683 C95.873805,1.16805296 97.0446738,7.10542736e-15 98.4888107,7.10542736e-15" id="Fill-6"></path>
                    <path d="M111.590822,17.9224527 L111.590822,23.7276429 C111.590822,24.8010946 112.469548,25.6711281 113.553725,25.6711281 L119.32008,25.6711281 C120.404257,25.6711281 121.282983,24.8010946 121.282983,23.7276429 L121.282983,17.9224527 C121.282983,16.849001 120.404257,15.9789675 119.32008,15.9789675 L113.553725,15.9789675 C112.469548,15.9789675 111.590822,16.849001 111.590822,17.9224527" id="Fill-8"></path>
                </g>
            </g>
        </g>
    </g>
</svg>