<?xml version="1.0" encoding="UTF-8"?>
<svg width="14px" height="14px" viewBox="0 0 14 14" version="1.1" xmlns="http://www.w3.org/2000/svg" xmlns:xlink="http://www.w3.org/1999/xlink">
    <!-- Generator: Sketch 56.3 (81716) - https://sketch.com -->
    <title>? icon</title>
    <desc>Created with Sketch.</desc>
    <g id="Page-1" stroke="none" stroke-width="1" fill="none" fill-rule="evenodd" opacity="0.25" stroke-linecap="round" stroke-linejoin="round">
        <g id="Manage-Position-(definition-rollover)" transform="translate(-192.000000, -760.000000)" stroke="#000000">
            <g id="Collateral" transform="translate(100.000000, 587.000000)">
                <g id="Token-Debt-row" transform="translate(20.000000, 160.000000)">
                    <g id="?-icon" transform="translate(73.000000, 14.000000)">
                        <circle id="Oval" cx="6" cy="6" r="6"></circle>
                        <path d="M4.125,4.541 C4.125,3.50546609 4.96446609,2.666 6,2.666 C7.03553391,2.666 7.875,3.50546609 7.875,4.541 C7.875,5.57653391 7.03553391,6.416 6,6.416 L6,7.416" id="Shape"></path>
                        <path d="M6,9.416 C6.13807119,9.416 6.25,9.52792881 6.25,9.666 C6.25,9.80407119 6.13807119,9.916 6,9.916 C5.86192881,9.916 5.75,9.80407119 5.75,9.666 C5.75,9.52792881 5.86192881,9.416 6,9.416" id="Shape"></path>
                    </g>
                </g>
            </g>
        </g>
    </g>
</svg>